<svg width="200" height="200" viewBox="0 0 200 200" fill="none" xmlns="http://www.w3.org/2000/svg">
<rect width="200" height="200" rx="15" fill="#D4E9F5"/>
<path fill-rule="evenodd" clip-rule="evenodd" d="M99.4857 16C150 16 184 49.9988 184 99.9988C184 149.999 148 183.999 100 183.999C52 183.999 16 155.999 16 99.9988C16 43.9988 53.4857 16 99.4857 16ZM37 130.999C37 108.999 41 84.9988 51 66.9988C51 66.9988 63 59.9988 79 58.9988L83 66.9988C93 65.9988 105 65.9988 115 66.9988L119 58.9988C135 59.9988 147 66.9988 147 66.9988C155 84.9988 161 108.999 161 130.999C161 130.999 143 140.999 125 144.999C122 139.999 121 134.999 121 134.999L133 130.999L131 128.999C117 136.999 81 136.999 67 128.999L65 130.999L77 134.999C77 134.999 75.4 140.999 73 144.999C55 140.999 37 130.999 37 130.999Z" fill="#5865F2"/>
<path d="M79 92.9988C84 92.9988 90 96.9988 90 104.999C90 112.999 84 116.999 79 116.999C74 116.999 68 112.999 68 104.999C68 96.9988 74 92.9988 79 92.9988Z" fill="#5865F2"/>
<path d="M119 92.9988C124 92.9988 130 96.9988 130 104.999C130 112.999 124 116.999 119 116.999C114 116.999 108 112.999 108 104.999C108 96.9988 114 92.9988 119 92.9988Z" fill="#5865F2"/>
<path fill-rule="evenodd" clip-rule="evenodd" d="M51 66.9988C41 84.9988 37 108.999 37 130.999C37 130.999 55 140.999 73 144.999C75.4 140.999 77 134.999 77 134.999L65 130.999L67 128.999C81 136.999 117 136.999 131 128.999L133 130.999L121 134.999C121 134.999 122 139.999 125 144.999C143 140.999 161 130.999 161 130.999C161 108.999 155 84.9988 147 66.9988C147 66.9988 135 59.9988 119 58.9988L115 66.9988C105 65.9988 93 65.9988 83 66.9988L79 58.9988C63 59.9988 51 66.9988 51 66.9988ZM130 104.999C130 96.9988 124 92.9988 119 92.9988C114 92.9988 108 96.9988 108 104.999C108 112.999 114 116.999 119 116.999C124 116.999 130 112.999 130 104.999ZM90 104.999C90 96.9988 84 92.9988 79 92.9988C74 92.9988 68 96.9988 68 104.999C68 112.999 74 116.999 79 116.999C84 116.999 90 112.999 90 104.999Z" fill="#F5F1CE"/>
<path fill-rule="evenodd" clip-rule="evenodd" d="M99.4857 16C150 16 184 49.9988 184 99.9988C184 149.999 148 183.999 100 183.999C52 183.999 16 155.999 16 99.9988C16 43.9988 53.4857 16 99.4857 16ZM37 130.999C37 108.999 41 84.9988 51 66.9988C51 66.9988 63 59.9988 79 58.9988L83 66.9988C93 65.9988 105 65.9988 115 66.9988L119 58.9988C135 59.9988 147 66.9988 147 66.9988C155 84.9988 161 108.999 161 130.999C161 130.999 143 140.999 125 144.999C122 139.999 121 134.999 121 134.999L133 130.999L131 128.999C117 136.999 81 136.999 67 128.999L65 130.999L77 134.999C77 134.999 75.4 140.999 73 144.999C55 140.999 37 130.999 37 130.999Z" stroke="black"/>
<path d="M79 92.9988C84 92.9988 90 96.9988 90 104.999C90 112.999 84 116.999 79 116.999C74 116.999 68 112.999 68 104.999C68 96.9988 74 92.9988 79 92.9988Z" stroke="black"/>
<path d="M119 92.9988C124 92.9988 130 96.9988 130 104.999C130 112.999 124 116.999 119 116.999C114 116.999 108 112.999 108 104.999C108 96.9988 114 92.9988 119 92.9988Z" stroke="black"/>
<path fill-rule="evenodd" clip-rule="evenodd" d="M51 66.9988C41 84.9988 37 108.999 37 130.999C37 130.999 55 140.999 73 144.999C75.4 140.999 77 134.999 77 134.999L65 130.999L67 128.999C81 136.999 117 136.999 131 128.999L133 130.999L121 134.999C121 134.999 122 139.999 125 144.999C143 140.999 161 130.999 161 130.999C161 108.999 155 84.9988 147 66.9988C147 66.9988 135 59.9988 119 58.9988L115 66.9988C105 65.9988 93 65.9988 83 66.9988L79 58.9988C63 59.9988 51 66.9988 51 66.9988ZM130 104.999C130 96.9988 124 92.9988 119 92.9988C114 92.9988 108 96.9988 108 104.999C108 112.999 114 116.999 119 116.999C124 116.999 130 112.999 130 104.999ZM90 104.999C90 96.9988 84 92.9988 79 92.9988C74 92.9988 68 96.9988 68 104.999C68 112.999 74 116.999 79 116.999C84 116.999 90 112.999 90 104.999Z" stroke="black"/>
</svg>
