<svg width="200" height="200" viewBox="0 0 200 200" fill="none" xmlns="http://www.w3.org/2000/svg">
<rect width="200" height="200" rx="15" fill="#D4E9F5"/>
<path d="M86 183.177C90.4867 183.722 95.1566 184 100 184C104.843 184 109.513 183.705 114 183.13V128H138L142 100H114V82C114 74 120 68 128 68H142V44C142 44 130 42 112 42C98 42 86 54 86 68V100H58V128H86V183.177Z" fill="#F5F1CE"/>
<path d="M184 100C184 50 152 16 100 16C48 16 16 48 16 100C16 147.157 42.3165 177.865 86 183.177V128H58V100H86V68C86 54 98 42 112 42C130 42 142 44 142 44V68H128C120 68 114 74 114 82V100H142L138 128H114V183.13C157.684 177.527 184 145.343 184 100Z" fill="#3F79EB"/>
</svg>
