<svg width="100" height="100" viewBox="0 0 100 100" fill="none" xmlns="http://www.w3.org/2000/svg">
<rect width="100" height="100" rx="15" fill="#D4E9F5"/>
<path d="M43 91.5884C45.2433 91.8612 47.5783 92 50 92C52.4217 92 54.7567 91.8525 57 91.5648V64H69L71 50H57V41C57 37 60 34 64 34H71V22C71 22 65 21 56 21C49 21 43 27 43 34V50H29V64H43V91.5884Z" fill="#F5F1CE"/>
<path d="M92 50C92 25 76 8 50 8C24 8 8 24 8 50C8 73.5783 21.1582 88.9327 43 91.5884V64H29V50H43V34C43 27 49 21 56 21C65 21 71 22 71 22V34H64C60 34 57 37 57 41V50H71L69 64H57V91.5648C78.8418 88.7637 92 72.6714 92 50Z" fill="#3F79EB"/>
</svg>
