<svg width="100" height="100" viewBox="0 0 100 100" fill="none" xmlns="http://www.w3.org/2000/svg">
<rect width="100" height="100" rx="50" fill="#D4E9F5"/>
<path fill-rule="evenodd" clip-rule="evenodd" d="M49.7673 12C72.619 12 88 27.3805 88 49.9997C88 72.6189 71.7143 88 50 88C28.2857 88 12 75.3332 12 49.9997C12 24.6662 28.9578 12 49.7673 12ZM21.5 64.0237C21.5 54.0712 23.3095 43.214 27.8333 35.0711C27.8333 35.0711 33.2619 31.9044 40.5 31.452L42.3095 35.0711C46.8333 34.6187 52.2619 34.6187 56.7857 35.0711L58.5952 31.452C65.8333 31.9044 71.2619 35.0711 71.2619 35.0711C74.881 43.214 77.5952 54.0712 77.5952 64.0237C77.5952 64.0237 69.4524 68.5475 61.3095 70.357C59.9524 68.0951 59.5 65.8332 59.5 65.8332L64.9286 64.0237L64.0238 63.1189C57.6905 66.738 41.4048 66.738 35.0714 63.1189L34.1667 64.0237L39.5952 65.8332C39.5952 65.8332 38.8714 68.5475 37.7857 70.357C29.6429 68.5475 21.5 64.0237 21.5 64.0237Z" fill="#5865F2"/>
<path d="M40.5 46.8331C42.7619 46.8331 45.4762 48.6426 45.4762 52.2617C45.4762 55.8807 42.7619 57.6903 40.5 57.6903C38.2381 57.6903 35.5238 55.8807 35.5238 52.2617C35.5238 48.6426 38.2381 46.8331 40.5 46.8331Z" fill="#5865F2"/>
<path d="M58.5952 46.8331C60.8571 46.8331 63.5714 48.6426 63.5714 52.2617C63.5714 55.8807 60.8571 57.6903 58.5952 57.6903C56.3333 57.6903 53.619 55.8807 53.619 52.2617C53.619 48.6426 56.3333 46.8331 58.5952 46.8331Z" fill="#5865F2"/>
<path fill-rule="evenodd" clip-rule="evenodd" d="M27.8333 35.0711C23.3095 43.214 21.5 54.0712 21.5 64.0237C21.5 64.0237 29.6429 68.5475 37.7857 70.357C38.8714 68.5475 39.5952 65.8332 39.5952 65.8332L34.1667 64.0237L35.0714 63.1189C41.4048 66.738 57.6905 66.738 64.0238 63.1189L64.9286 64.0237L59.5 65.8332C59.5 65.8332 59.9524 68.0951 61.3095 70.357C69.4524 68.5475 77.5952 64.0237 77.5952 64.0237C77.5952 54.0712 74.881 43.214 71.2619 35.0711C71.2619 35.0711 65.8333 31.9044 58.5952 31.452L56.7857 35.0711C52.2619 34.6187 46.8333 34.6187 42.3095 35.0711L40.5 31.452C33.2619 31.9044 27.8333 35.0711 27.8333 35.0711ZM63.5714 52.2617C63.5714 48.6426 60.8571 46.8331 58.5952 46.8331C56.3333 46.8331 53.619 48.6426 53.619 52.2617C53.619 55.8807 56.3333 57.6903 58.5952 57.6903C60.8571 57.6903 63.5714 55.8807 63.5714 52.2617ZM45.4762 52.2617C45.4762 48.6426 42.7619 46.8331 40.5 46.8331C38.2381 46.8331 35.5238 48.6426 35.5238 52.2617C35.5238 55.8807 38.2381 57.6903 40.5 57.6903C42.7619 57.6903 45.4762 55.8807 45.4762 52.2617Z" fill="#F5F1CE"/>
<path fill-rule="evenodd" clip-rule="evenodd" d="M49.7673 12C72.619 12 88 27.3805 88 49.9997C88 72.6189 71.7143 88 50 88C28.2857 88 12 75.3332 12 49.9997C12 24.6662 28.9578 12 49.7673 12ZM21.5 64.0237C21.5 54.0712 23.3095 43.214 27.8333 35.0711C27.8333 35.0711 33.2619 31.9044 40.5 31.452L42.3095 35.0711C46.8333 34.6187 52.2619 34.6187 56.7857 35.0711L58.5952 31.452C65.8333 31.9044 71.2619 35.0711 71.2619 35.0711C74.881 43.214 77.5952 54.0712 77.5952 64.0237C77.5952 64.0237 69.4524 68.5475 61.3095 70.357C59.9524 68.0951 59.5 65.8332 59.5 65.8332L64.9286 64.0237L64.0238 63.1189C57.6905 66.738 41.4048 66.738 35.0714 63.1189L34.1667 64.0237L39.5952 65.8332C39.5952 65.8332 38.8714 68.5475 37.7857 70.357C29.6429 68.5475 21.5 64.0237 21.5 64.0237Z" stroke="black"/>
<path d="M40.5 46.8331C42.7619 46.8331 45.4762 48.6426 45.4762 52.2617C45.4762 55.8807 42.7619 57.6903 40.5 57.6903C38.2381 57.6903 35.5238 55.8807 35.5238 52.2617C35.5238 48.6426 38.2381 46.8331 40.5 46.8331Z" stroke="black"/>
<path d="M58.5952 46.8331C60.8571 46.8331 63.5714 48.6426 63.5714 52.2617C63.5714 55.8807 60.8571 57.6903 58.5952 57.6903C56.3333 57.6903 53.619 55.8807 53.619 52.2617C53.619 48.6426 56.3333 46.8331 58.5952 46.8331Z" stroke="black"/>
<path fill-rule="evenodd" clip-rule="evenodd" d="M27.8333 35.0711C23.3095 43.214 21.5 54.0712 21.5 64.0237C21.5 64.0237 29.6429 68.5475 37.7857 70.357C38.8714 68.5475 39.5952 65.8332 39.5952 65.8332L34.1667 64.0237L35.0714 63.1189C41.4048 66.738 57.6905 66.738 64.0238 63.1189L64.9286 64.0237L59.5 65.8332C59.5 65.8332 59.9524 68.0951 61.3095 70.357C69.4524 68.5475 77.5952 64.0237 77.5952 64.0237C77.5952 54.0712 74.881 43.214 71.2619 35.0711C71.2619 35.0711 65.8333 31.9044 58.5952 31.452L56.7857 35.0711C52.2619 34.6187 46.8333 34.6187 42.3095 35.0711L40.5 31.452C33.2619 31.9044 27.8333 35.0711 27.8333 35.0711ZM63.5714 52.2617C63.5714 48.6426 60.8571 46.8331 58.5952 46.8331C56.3333 46.8331 53.619 48.6426 53.619 52.2617C53.619 55.8807 56.3333 57.6903 58.5952 57.6903C60.8571 57.6903 63.5714 55.8807 63.5714 52.2617ZM45.4762 52.2617C45.4762 48.6426 42.7619 46.8331 40.5 46.8331C38.2381 46.8331 35.5238 48.6426 35.5238 52.2617C35.5238 55.8807 38.2381 57.6903 40.5 57.6903C42.7619 57.6903 45.4762 55.8807 45.4762 52.2617Z" stroke="black"/>
</svg>
