<svg width="144" height="144" viewBox="0 0 144 144" fill="none" xmlns="http://www.w3.org/2000/svg">
<path d="M50.0769 0C48.4201 0 47.0769 1.34315 47.0769 3L47.077 41.5385H141.231L99.6923 0H50.0769Z" fill="#005EB8"/>
<path d="M0 44.3077V93.8788C0 95.5356 1.34315 96.8788 3 96.8788H41.5385L41.5386 2.76923L0 44.3077Z" fill="#005EB8"/>
<path d="M2.76938 102.462L44.3077 144H93.9232C95.5801 144 96.9232 142.657 96.9232 141V102.462H2.76938Z" fill="#005EB8"/>
<path d="M102.462 47.0769L141 47.0769C142.657 47.0769 144 48.4201 144 50.0769V99.6923L102.462 141.231V47.0769Z" fill="#005EB8"/>
<path d="M50.0769 0C48.4201 0 47.0769 1.34315 47.0769 3L47.077 41.5385H141.231L99.6923 0H50.0769Z"/>
<path d="M0 44.3077V93.8788C0 95.5356 1.34315 96.8788 3 96.8788H41.5385L41.5386 2.76923L0 44.3077Z"/>
<path d="M2.76938 102.462L44.3077 144H93.9232C95.5801 144 96.9232 142.657 96.9232 141V102.462H2.76938Z"/>
<path d="M102.462 47.0769L141 47.0769C142.657 47.0769 144 48.4201 144 50.0769V99.6923L102.462 141.231V47.0769Z"/>
</svg>
