<svg width="48" height="48" viewBox="0 0 48 48" fill="none" xmlns="http://www.w3.org/2000/svg">
<path d="M16.6923 0C16.14 0 15.6923 0.447716 15.6923 1L15.6923 13.8462H47.077L33.2308 0H16.6923Z" fill="#005EB8"/>
<path d="M0 14.7692V31.2929C0 31.8452 0.447715 32.2929 1 32.2929H13.8462L13.8462 0.923077L0 14.7692Z" fill="#005EB8"/>
<path d="M0.923127 34.1539L14.7692 48H31.3077C31.86 48 32.3077 47.5523 32.3077 47V34.1539H0.923127Z" fill="#005EB8"/>
<path d="M34.1539 15.6923L47 15.6923C47.5523 15.6923 48 16.14 48 16.6923V33.2308L34.1539 47.0769V15.6923Z" fill="#005EB8"/>
<path d="M16.6923 0C16.14 0 15.6923 0.447716 15.6923 1L15.6923 13.8462H47.077L33.2308 0H16.6923Z"/>
<path d="M0 14.7692V31.2929C0 31.8452 0.447715 32.2929 1 32.2929H13.8462L13.8462 0.923077L0 14.7692Z"/>
<path d="M0.923127 34.1539L14.7692 48H31.3077C31.86 48 32.3077 47.5523 32.3077 47V34.1539H0.923127Z"/>
<path d="M34.1539 15.6923L47 15.6923C47.5523 15.6923 48 16.14 48 16.6923V33.2308L34.1539 47.0769V15.6923Z"/>
</svg>
        